<svg width="104" height="27" viewBox="0 0 104 27" fill="none" xmlns="http://www.w3.org/2000/svg">
<path d="M3 26.5L104 26.5" stroke="#C4C0B6"/>
<path d="M9.83594 11.2969C9.72135 12.5104 9.27344 13.4583 8.49219 14.1406C7.71094 14.8177 6.67188 15.1562 5.375 15.1562C4.46875 15.1562 3.66927 14.9427 2.97656 14.5156C2.28906 14.0833 1.75781 13.4714 1.38281 12.6797C1.00781 11.888 0.8125 10.9688 0.796875 9.92188V8.85938C0.796875 7.78646 0.986979 6.84115 1.36719 6.02344C1.7474 5.20573 2.29167 4.57552 3 4.13281C3.71354 3.6901 4.53646 3.46875 5.46875 3.46875C6.72396 3.46875 7.73438 3.8099 8.5 4.49219C9.26562 5.17448 9.71094 6.13802 9.83594 7.38281H7.86719C7.77344 6.5651 7.53385 5.97656 7.14844 5.61719C6.76823 5.2526 6.20833 5.07031 5.46875 5.07031C4.60938 5.07031 3.94792 5.38542 3.48438 6.01562C3.02604 6.64062 2.79167 7.5599 2.78125 8.77344V9.78125C2.78125 11.0104 3 11.9479 3.4375 12.5938C3.88021 13.2396 4.52604 13.5625 5.375 13.5625C6.15104 13.5625 6.73438 13.388 7.125 13.0391C7.51562 12.6901 7.76302 12.1094 7.86719 11.2969H9.83594ZM16.4453 12.6641L18.9453 6.54688H21.3203V15H19.4219V9.40625L17.0938 15H15.8047L13.4688 9.375V15H11.5703V6.54688H13.9609L16.4453 12.6641ZM23.1016 10.6953C23.1016 9.86719 23.2656 9.1224 23.5938 8.46094C23.9219 7.79427 24.3828 7.28385 24.9766 6.92969C25.5703 6.57031 26.2526 6.39062 27.0234 6.39062C28.1641 6.39062 29.0885 6.75781 29.7969 7.49219C30.5104 8.22656 30.8958 9.20052 30.9531 10.4141L30.9609 10.8594C30.9609 11.6927 30.7995 12.4375 30.4766 13.0938C30.1589 13.75 29.7005 14.2578 29.1016 14.6172C28.5078 14.9766 27.8203 15.1562 27.0391 15.1562C25.8464 15.1562 24.8906 14.7604 24.1719 13.9688C23.4583 13.1719 23.1016 12.112 23.1016 10.7891V10.6953ZM25 10.8594C25 11.7292 25.1797 12.4115 25.5391 12.9062C25.8984 13.3958 26.3984 13.6406 27.0391 13.6406C27.6797 13.6406 28.1771 13.3906 28.5312 12.8906C28.8906 12.3906 29.0703 11.6589 29.0703 10.6953C29.0703 9.84115 28.8854 9.16406 28.5156 8.66406C28.151 8.16406 27.6536 7.91406 27.0234 7.91406C26.4036 7.91406 25.9115 8.16146 25.5469 8.65625C25.1823 9.14583 25 9.88021 25 10.8594ZM38.9844 8.05469H36.2422V15H34.3438V8.05469H31.6328V6.54688H38.9844V8.05469ZM47.6562 10.8594C47.6562 12.1667 47.3594 13.2109 46.7656 13.9922C46.1719 14.7682 45.375 15.1562 44.375 15.1562C43.4479 15.1562 42.7057 14.8516 42.1484 14.2422V18.25H40.25V6.54688H42L42.0781 7.40625C42.6354 6.72917 43.3932 6.39062 44.3516 6.39062C45.3828 6.39062 46.1901 6.77604 46.7734 7.54688C47.362 8.3125 47.6562 9.3776 47.6562 10.7422V10.8594ZM45.7656 10.6953C45.7656 9.85156 45.5964 9.18229 45.2578 8.6875C44.9245 8.19271 44.4453 7.94531 43.8203 7.94531C43.0443 7.94531 42.487 8.26562 42.1484 8.90625V12.6562C42.4922 13.3125 43.0547 13.6406 43.8359 13.6406C44.4401 13.6406 44.9115 13.3984 45.25 12.9141C45.5938 12.4245 45.7656 11.6849 45.7656 10.6953ZM52.9922 15.1562C51.7891 15.1562 50.8125 14.7786 50.0625 14.0234C49.3177 13.263 48.9453 12.2526 48.9453 10.9922V10.7578C48.9453 9.91406 49.1068 9.16146 49.4297 8.5C49.7578 7.83333 50.2161 7.3151 50.8047 6.94531C51.3932 6.57552 52.0495 6.39062 52.7734 6.39062C53.9245 6.39062 54.8125 6.75781 55.4375 7.49219C56.0677 8.22656 56.3828 9.26562 56.3828 10.6094V11.375H50.8594C50.9167 12.0729 51.1484 12.625 51.5547 13.0312C51.9661 13.4375 52.4818 13.6406 53.1016 13.6406C53.9714 13.6406 54.6797 13.2891 55.2266 12.5859L56.25 13.5625C55.9115 14.0677 55.4583 14.4609 54.8906 14.7422C54.3281 15.0182 53.6953 15.1562 52.9922 15.1562ZM52.7656 7.91406C52.2448 7.91406 51.8229 8.09635 51.5 8.46094C51.1823 8.82552 50.9792 9.33333 50.8906 9.98438H54.5078V9.84375C54.4661 9.20833 54.2969 8.72917 54 8.40625C53.7031 8.07812 53.2917 7.91406 52.7656 7.91406ZM64.4219 8.05469H61.6797V15H59.7812V8.05469H57.0703V6.54688H64.4219V8.05469ZM67.7344 9.23438H69.5938C70.2865 9.23438 70.8906 9.35417 71.4062 9.59375C71.9219 9.83333 72.3125 10.1693 72.5781 10.6016C72.849 11.0339 72.9844 11.5365 72.9844 12.1094C72.9844 12.9792 72.6771 13.6771 72.0625 14.2031C71.4479 14.7292 70.6302 14.9948 69.6094 15H65.8359V6.54688H67.7344V9.23438ZM67.7344 10.7578V13.4844H69.5859C70.0495 13.4844 70.4141 13.3698 70.6797 13.1406C70.9505 12.9062 71.0859 12.5755 71.0859 12.1484C71.0859 11.7214 70.9531 11.3854 70.6875 11.1406C70.4271 10.8906 70.0729 10.763 69.625 10.7578H67.7344ZM78.6328 15V6.54688H82.0625C83.2188 6.54688 84.099 6.75 84.7031 7.15625C85.3073 7.55729 85.6094 8.13542 85.6094 8.89062C85.6094 9.28125 85.487 9.63281 85.2422 9.94531C85.0026 10.2526 84.6458 10.4896 84.1719 10.6562C84.724 10.7708 85.1615 11.0026 85.4844 11.3516C85.8073 11.7005 85.9688 12.112 85.9688 12.5859C85.9688 13.3724 85.6771 13.9714 85.0938 14.3828C84.5156 14.7943 83.6823 15 82.5938 15H78.6328ZM80.5312 11.3984V13.5H82.6094C83.5833 13.5 84.0703 13.151 84.0703 12.4531C84.0703 11.75 83.5755 11.3984 82.5859 11.3984H80.5312ZM80.5312 10.0391H82.0938C83.1719 10.0391 83.7109 9.72135 83.7109 9.08594C83.7109 8.41927 83.2005 8.07552 82.1797 8.05469H80.5312V10.0391ZM91.0859 13.6406C91.5599 13.6406 91.9531 13.5026 92.2656 13.2266C92.5781 12.9505 92.7448 12.6094 92.7656 12.2031H94.5547C94.5339 12.7292 94.3698 13.2214 94.0625 13.6797C93.7552 14.1328 93.3385 14.4922 92.8125 14.7578C92.2865 15.0234 91.7188 15.1562 91.1094 15.1562C89.9271 15.1562 88.9896 14.7734 88.2969 14.0078C87.6042 13.2422 87.2578 12.1849 87.2578 10.8359V10.6406C87.2578 9.35417 87.6016 8.32552 88.2891 7.55469C88.9766 6.77865 89.9141 6.39062 91.1016 6.39062C92.1068 6.39062 92.9245 6.6849 93.5547 7.27344C94.1901 7.85677 94.5234 8.625 94.5547 9.57812H92.7656C92.7448 9.09375 92.5781 8.69531 92.2656 8.38281C91.9583 8.07031 91.5651 7.91406 91.0859 7.91406C90.4714 7.91406 89.9974 8.13802 89.6641 8.58594C89.3307 9.02865 89.1615 9.70312 89.1562 10.6094V10.9141C89.1562 11.8307 89.3203 12.5156 89.6484 12.9688C89.9818 13.4167 90.4609 13.6406 91.0859 13.6406ZM99.7109 15.1562C98.5078 15.1562 97.5312 14.7786 96.7812 14.0234C96.0365 13.263 95.6641 12.2526 95.6641 10.9922V10.7578C95.6641 9.91406 95.8255 9.16146 96.1484 8.5C96.4766 7.83333 96.9349 7.3151 97.5234 6.94531C98.112 6.57552 98.7682 6.39062 99.4922 6.39062C100.643 6.39062 101.531 6.75781 102.156 7.49219C102.786 8.22656 103.102 9.26562 103.102 10.6094V11.375H97.5781C97.6354 12.0729 97.8672 12.625 98.2734 13.0312C98.6849 13.4375 99.2005 13.6406 99.8203 13.6406C100.69 13.6406 101.398 13.2891 101.945 12.5859L102.969 13.5625C102.63 14.0677 102.177 14.4609 101.609 14.7422C101.047 15.0182 100.414 15.1562 99.7109 15.1562ZM99.4844 7.91406C98.9635 7.91406 98.5417 8.09635 98.2188 8.46094C97.901 8.82552 97.6979 9.33333 97.6094 9.98438H101.227V9.84375C101.185 9.20833 101.016 8.72917 100.719 8.40625C100.422 8.07812 100.01 7.91406 99.4844 7.91406Z" fill="#444240"/>
</svg>
